<?xml version="1.0" encoding="utf-8"?>
<!-- Generator: Adobe Illustrator 24.0.3, SVG Export Plug-In . SVG Version: 6.00 Build 0)  -->
<svg version="1.1" id="Layer_1" xmlns="http://www.w3.org/2000/svg" xmlns:xlink="http://www.w3.org/1999/xlink" x="0px" y="0px"
	 viewBox="0 0 461.46 146.21" style="enable-background:new 0 0 461.46 146.21;" xml:space="preserve">
<style type="text/css">
	.st0{fill:#074067;}
	.st1{fill:#043E66;}
	.st2{fill:#084168;}
	.st3{fill:#064067;}
	.st4{fill:#EE4241;}
	.st5{fill:#F03E3D;}
	.st6{fill:#063F66;}
	.st7{fill:#F13A3A;}
	.st8{fill:#F33737;}
	.st9{fill:#F23637;}
	.st10{fill:#FB2F31;}
	.st11{fill:#FD2A2A;}
	.st12{fill:#FC2A2A;}
	.st13{fill:#FD282B;}
	.st14{fill:#E55352;}
	.st15{fill:#EC423F;}
	.st16{fill:#E95351;}
	.st17{fill:#E5514F;}
	.st18{fill:#E54844;}
	.st19{fill:#E75654;}
	.st20{fill:#003756;}
	.st21{fill:#E14E4D;}
	.st22{fill:#FE2728;}
</style>
<g id="_x38_yaVle.tif">
	<g>
		<path class="st0" d="M342.69,47.66c0.39,12.95,0.75,25.9,1.2,38.85c0.14,3.94,3.16,4.77,6.31,5.05c2.44,0.21,3.44,1.1,2.39,3.83
			c-8.13,0-16.28,0-24.42,0c-8.04,0-16.08,0.04-24.12-0.09c-1.1-0.02-2.19-0.91-3.28-1.4c0.91-0.76,1.75-2.07,2.73-2.18
			c3.36-0.38,3.84-1.88,2.74-4.79c-1.23-3.27-2.21-6.64-3.13-10.01c-0.62-2.26-1.79-3.36-4.24-3.28c-4.02,0.12-8.05-0.07-12.06,0.1
			c-1.05,0.04-2.71,0.69-3,1.47c-1.84,4.86-3.37,9.84-5.14,15.19c2.25,0.51,3.98,0.72,5.57,1.33c0.86,0.33,1.46,1.34,2.17,2.05
			c-0.8,0.53-1.59,1.51-2.41,1.53c-5.78,0.15-11.56,0.16-17.33,0.04c-0.84-0.02-1.66-0.98-2.49-1.51c0.7-0.7,1.38-1.98,2.1-2
			c4.28-0.11,6.13-2.76,7.46-6.28c5.4-14.25,11.5-28.28,15.98-42.8c1.89-6.13,6.81-7.93,10.62-12.34c0.8,1.44,1.59,2.47,2,3.64
			c6.02,17.21,12.02,34.42,17.94,51.67c1.22,3.56,3.19,5.69,7.2,5.97c6.37,0.44,8.94-0.96,9.16-7.32
			c0.49-14.38,0.42-28.78,0.38-43.17c-0.01-3.5-2.81-4.59-5.88-5.26c-1.13-0.25-2.05-1.47-3.07-2.25c1.09-0.48,2.17-1.35,3.27-1.37
			c5.53-0.13,11.06-0.08,16.58,0.02c0.87,0.02,2.06,0.33,2.54,0.94c6.14,7.88,12.06,15.94,18.29,23.75
			c4.36,5.46,9.11,10.61,14.08,16.35c0.28-1.24,0.56-1.9,0.56-2.56c-0.08-8.89-0.06-17.78-0.38-26.66
			c-0.22-6.06-1.28-6.93-7.08-8.26c-0.95-0.22-1.69-1.35-2.53-2.06c0.92-0.53,1.83-1.51,2.75-1.53c6.41-0.13,12.82-0.11,19.22,0.01
			c0.9,0.02,1.78,0.81,2.67,1.25c-0.74,0.8-1.4,2.17-2.25,2.29c-4.16,0.59-5.85,3.05-5.91,6.94c-0.22,16.14-0.45,32.28-0.59,48.43
			c-0.02,2.11,0.06,3.89-2.45,4.77c-2.59,0.9-3.73-0.41-5.2-2.24c-11.98-14.97-24.09-29.83-36.15-44.73
			c-0.47-0.58-0.95-1.16-1.42-1.74C343.6,47.4,343.14,47.53,342.69,47.66z M293.5,47.93c-0.26-0.05-0.52-0.11-0.79-0.16
			c-2.26,6.68-4.52,13.35-6.9,20.4c5.04,0,9.33,0,14.31,0C297.81,61.11,295.65,54.52,293.5,47.93z"/>
		<path class="st1" d="M48.82,109.2C24.25,109.31,4.94,93.54,0.8,71.95c-4.14-21.6,8.03-43.29,28.78-51.34
			c20.62-7.99,44.12-0.16,56.02,18.65c1.12,1.77,2.25,3.77,0.07,5.3c-2.43,1.72-3.67-0.36-5.08-2.07
			C71.44,31.37,59.62,26.5,45.49,29.6C31.32,32.7,22.03,41.64,18.7,55.96c-3.68,15.77,4.26,31.7,18.97,38.65
			c14.73,6.96,32.49,2.9,42.5-9.72c0.47-0.59,0.76-1.54,1.35-1.76c1.35-0.49,2.83-0.64,4.26-0.92c0.19,1.36,0.95,2.99,0.46,4.03
			c-1.07,2.22-2.65,4.24-4.26,6.15C72.72,103.4,60.83,108.93,48.82,109.2z"/>
		<path class="st1" d="M157.45,40.49c-0.71-2.52-2.52-3.4-4.98-3.77c-0.9-0.14-1.64-1.32-2.45-2.02c0.78-0.58,1.56-1.65,2.35-1.66
			c11.28-0.11,22.58-0.53,33.82,0.08c8.11,0.44,13.16,4.99,14.46,11c1.55,7.15-1.38,12.56-8.23,15.22c-0.88,0.34-1.74,0.72-3.3,1.38
			c2.05,0.7,3.43,1.13,4.79,1.63c7.14,2.61,10.87,7.73,10.92,14.97c0.06,7.36-3.7,13.04-10.72,15.55c-2.92,1.05-6.07,1.94-9.13,2
			c-11.76,0.23-23.53,0.09-35.4,0.09c-0.89-2.08-0.14-3.2,2.19-3.38c3.27-0.25,5.38-1.78,5.77-5.2c0.26-0.79,0.74-1.58,0.75-2.37
			c0.05-13.61,0.05-27.21,0-40.82C158.29,42.28,157.74,41.39,157.45,40.49z M170.68,74.29c0.07,0,0.14,0,0.22,0
			c0,2.86-0.14,5.74,0.03,8.59c0.22,3.62,1.01,7.05,5.38,7.9c5.38,1.04,9.44-0.47,11.63-4.63c2.8-5.31,2.82-10.8-0.07-16.1
			c-2.76-5.07-7.66-5.87-12.86-6.04c-3.09-0.1-4.75,0.9-4.38,4.31C170.86,70.28,170.68,72.3,170.68,74.29z M170.71,48.5
			c-0.01,0-0.02,0-0.03,0c0,2.75-0.15,5.51,0.08,8.24c0.08,1.01,0.83,2.48,1.66,2.81c4.22,1.71,11.11-0.8,13.15-4.76
			c2.29-4.44,2.09-9.01-0.45-13.24c-2.46-4.09-6.58-4.99-11.09-4.86c-2.22,0.07-3.25,1.11-3.3,3.18
			C170.66,42.76,170.71,45.63,170.71,48.5z"/>
		<path class="st2" d="M114.64,65.61c0,6.2-0.18,12.21,0.06,18.19c0.18,4.62,1.85,6.3,6.45,6.74c3.23,0.31,6.53,0.25,9.78,0.06
			c4.58-0.27,7.53-3.07,9.68-6.87c0.68-1.2,1.15-2.57,2.04-3.57c0.52-0.59,1.73-0.91,2.54-0.78c0.46,0.07,1.18,1.38,1.04,1.97
			c-0.97,4.25-2.02,8.49-3.31,12.66c-0.2,0.66-1.71,1.31-2.62,1.31c-15.59,0.08-31.17,0.09-46.76,0c-0.94-0.01-1.88-0.99-2.82-1.52
			c0.82-0.72,1.55-1.93,2.46-2.08c6.41-1.06,7.33,0.3,7.45-8.85c0.17-12.77,0.08-25.55,0.01-38.32c-0.04-6.49-0.15-6.45-6.09-8.73
			c-0.74-0.28-1.18-1.33-1.76-2.02c0.95-0.52,1.9-1.5,2.86-1.5c12.07-0.06,24.13,0.03,36.2,0.07c2.76,0.01,5.52,0,8.69,0
			c0.4,4.45,0.88,8.89,1.14,13.34c0.04,0.67-0.92,1.92-1.5,1.98c-0.71,0.07-1.73-0.69-2.24-1.37c-1.97-2.61-3.29-6.86-5.78-7.68
			c-4.84-1.58-10.31-1.34-15.53-1.62c-0.65-0.04-1.97,1.29-1.99,2.01c-0.17,6.26-0.19,12.52-0.02,18.78
			c0.02,0.75,1.37,1.96,2.24,2.09c2.09,0.31,4.26,0.12,6.4,0.11c5.63-0.03,5.88-0.32,7.61-5.69c0.32-0.99,1.64-1.67,2.5-2.49
			c0.48,0.97,1.35,1.92,1.37,2.9c0.14,5.25,0.14,10.51-0.01,15.77c-0.03,0.95-0.96,1.88-1.47,2.82c-0.79-0.75-2-1.36-2.31-2.27
			c-1.94-5.85-1.95-5.94-8.11-5.97c-2.26-0.01-4.52,0.03-6.78,0.08C115.7,65.17,115.35,65.38,114.64,65.61z"/>
		<path class="st3" d="M207.02,32.23c8.91,0,17.82-0.03,26.72,0.05c0.65,0.01,1.29,0.78,1.94,1.19c-0.51,0.73-0.86,1.85-1.55,2.14
			c-6.07,2.58-6.2,2.54-6.16,9.05c0.07,10.51-0.06,21.04,0.56,31.53c0.69,11.5,7.45,16.45,18.8,14.71c4.23-0.65,7.25-3.03,8.95-6.69
			c1.4-3.02,2.77-6.36,2.87-9.6c0.33-10.37,0.32-20.78-0.06-31.15c-0.2-5.68-1.18-6.12-6.92-7.61c-1.12-0.29-2-1.55-2.99-2.36
			c0.21-0.42,0.42-0.84,0.63-1.27c7.62,0,15.24-0.03,22.86,0.06c0.51,0.01,1.5,0.98,1.41,1.23c-0.27,0.82-0.87,2.12-1.45,2.17
			c-5.96,0.56-6.75,4.81-6.88,9.43c-0.2,7.51-0.15,15.02-0.37,22.53c-0.11,3.74-0.24,7.54-0.94,11.2
			c-2.18,11.35-9.95,17.29-23.11,17.77c-3.24,0.12-6.57-0.12-9.75-0.74c-11.65-2.26-17-9.3-17.37-23.16
			c-0.27-9.88-0.18-19.78-0.08-29.67c0.04-4.04-0.95-6.82-5.6-7.27c-0.91-0.09-1.69-1.59-2.52-2.45
			C206.37,32.97,206.7,32.6,207.02,32.23z"/>
		<path class="st0" d="M438.66,90.63c-1.69-5.34-3.14-10.35-4.95-15.23c-0.32-0.87-2.14-1.61-3.31-1.66
			c-4.13-0.2-8.3-0.25-12.42,0.03c-1.12,0.07-2.68,1.26-3.13,2.31c-1.49,3.56-2.47,7.33-3.85,10.95c-1.03,2.69-0.2,3.98,2.55,4.31
			c0.87,0.1,1.89,0.03,2.56,0.46c0.7,0.45,1.3,1.36,1.48,2.17c0.07,0.32-1.09,1.32-1.7,1.33c-6.15,0.11-12.3,0.14-18.45,0.02
			c-0.66-0.01-1.3-1.09-1.95-1.67c0.63-0.64,1.26-1.82,1.89-1.82c4.87-0.02,6.6-3.31,8.04-7.12c5.2-13.78,10.48-27.53,15.69-41.31
			c2.61-6.9,2.57-6.91,10.82-12.64c0.59,1.05,1.32,2,1.69,3.08c5.83,16.74,11.66,33.47,17.38,50.25c1.41,4.14,3.04,7.68,8.32,7.73
			c0.72,0.01,1.42,1.74,2.13,2.67c-0.25,0.3-0.51,0.6-0.76,0.89c-8.88,0-17.75,0.04-26.63-0.07c-0.67-0.01-1.32-1.03-1.99-1.59
			c0.59-0.66,1.06-1.61,1.8-1.92C435.22,91.25,436.71,91.08,438.66,90.63z M431.54,68.23c-2.42-7.25-4.62-13.81-6.81-20.36
			c-0.26,0.05-0.52,0.11-0.78,0.16c-2.23,6.61-4.46,13.23-6.82,20.2C422.33,68.23,426.54,68.23,431.54,68.23z"/>
		<path class="st4" d="M230.19,113.65c4.74,0,9.48,0,14.22,0c-4.9,2.45-3.16,6.83-3.35,10.53c-0.05,0.93,0.38,2.69,0.63,2.7
			c4.31,0.12,8.66,0.28,12.88-0.34c0.52-0.08,0.83-4.68,0.39-7.04c-0.37-2.02-1.95-3.82-3.01-5.75c4.25,0,9.14,0,14.03,0
			c-4.61,1.65-3.56,5.38-3.58,8.61c-0.04,4.5-0.07,9.01,0.01,13.51c0.06,3.49-1.46,7.66,4.85,8.73c-0.41,0.25-0.82,0.5-1.23,0.75
			c-4.83,0-9.66,0-14.49,0c6.31-3.29,2.81-8.9,3.47-13.35c0.08-0.52-1.06-1.55-1.81-1.78c-1.04-0.32-2.24-0.17-3.37-0.09
			c-2.81,0.2-7.56-0.32-8.05,0.87c-1.23,3.01-0.93,6.85-0.46,10.26c0.19,1.38,2.38,2.49,4.03,4.09c-5.3,0-10.24,0-15.18,0
			c5.73-2.66,3.3-7.66,3.56-11.7c0.26-3.99-0.03-8.01,0.08-12.01c0.09-3.2,0.23-6.28-4.2-7.15
			C229.81,114.2,230,113.93,230.19,113.65z M234.83,114.39c0,10.21,0,19.94,0,29.69c1.55,0,3.27,0,5.41,0c0-9.99,0-19.8,0-29.69
			C238.75,114.39,236.92,114.39,234.83,114.39z"/>
		<path class="st5" d="M452.56,135.95c2.57,3.06,5.14,6.12,7.69,9.16c-3.1,2.17-9.39,0.58-12.39-4c-1.43-2.19-2.31-4.73-3.74-6.93
			c-0.8-1.24-2.21-2.08-3.89-2.72c0.4,4.79-3.71,10.4,3.15,13.78c-4.87,0-9.74,0-14.61,0c5.01-2.03,3.81-6.23,3.84-9.9
			c0.04-4.38-0.01-8.77,0.01-13.15c0.01-3.05,0.69-6.39-3.59-7.24c0.21-0.54,0.31-0.96,0.39-0.96c6.95,0.18,14.04-0.38,20.8,0.86
			c5.24,0.96,6.58,6.61,3.89,11.43l-0.27-0.25c0.56-7.28-1.72-10.79-6.48-9.66c1.36,3.53,4.78,7.18-0.14,10.57
			c0.24-1.46,0.66-2.92,0.67-4.38c0.02-4.06-2.35-6.87-5.81-6.83c-0.84,0.01-2.35,0.9-2.38,1.45c-0.21,3.91-0.11,7.84-0.11,13.14
			c3.22-1.43,5.43-2.41,7.64-3.39c-0.48,1.08-0.94,2.17-1.45,3.24c-0.28,0.6-1.07,1.34-0.91,1.7c1.93,4.28,3.14,9.11,8.61,11.89
			c0-1.77,0.15-2.99-0.04-4.15c-0.2-1.19-0.73-2.32-1.12-3.47C452.33,136.16,452.56,135.95,452.56,135.95z"/>
		<path class="st6" d="M66.65,11.58c-13.94,0-27.48,0-41.02,0C26.43,6.97,36.86,0.72,44.98,0.05C52.86-0.6,64.3,5.25,66.65,11.58z"
			/>
		<path class="st7" d="M201.18,113.7c4.96,0,9.92,0,14.89,0c-5.01,1.84-3.71,5.96-3.76,9.49c-0.06,4.5-0.14,9,0.02,13.49
			c0.08,2.3-0.93,5.24,2.57,6.24c3.95,1.14,8.39,0.05,10.29-2.56c0.75-1.03,1.48-2.08,2.47-3.47c1.8,5.75-0.27,8.8-5.23,8.78
			c-6.02-0.02-12.04,0-18.06-0.02c-1.18,0-2.36-0.11-3.51-0.16c0-0.63-0.04-1.07,0.01-1.08c4.43-0.83,4.41-4.04,4.29-7.54
			c-0.17-5.12-0.14-10.25-0.01-15.37c0.09-3.29,0.12-6.34-4.47-6.93C200.84,114.27,201.01,113.98,201.18,113.7z"/>
		<path class="st8" d="M381.5,113.75c4.99,0,9.98,0,14.97,0c-5.05,1.8-3.93,5.91-3.96,9.48c-0.04,4.38-0.08,8.76,0.01,13.14
			c0.07,3.32-1.28,7.4,4.9,7.91c-0.32,0.31-0.64,0.61-0.96,0.92c-5.01,0-10.02,0-15.03,0c5.91-2.17,3.72-7.12,3.91-11.1
			c0.18-3.75,0.07-7.51,0.03-11.26c-0.04-3.47,1.22-7.57-4.97-8.26C380.76,114.31,381.13,114.03,381.5,113.75z"/>
		<path class="st9" d="M305.83,113.74c4.99,0,9.97,0,14.96,0c-5.16,1.72-3.91,5.88-3.95,9.43c-0.05,4.24-0.06,8.49,0,12.73
			c0.05,3.52-1.29,7.7,3.91,9.35c-5.02,0-10.05,0-15.07,0c5.42-1.94,4.05-6.35,4.11-10.11c0.06-3.99,0.06-7.99,0-11.98
			C309.74,119.58,310.9,115.41,305.83,113.74z"/>
		<path class="st10" d="M410.6,139.03c0.07,0.49,0.15,0.98,0.22,1.46c0,1.22,0,2.43,0,3.54c-2.16,0-4.47,0-6.56,0
			c0-8.59,0.02-16.93-0.04-25.26c-0.01-0.76-0.57-1.51-0.88-2.27c-0.21-0.25-0.42-0.5-0.62-0.75c2.58-2.29,6.48-2.25,8.39,0.08
			c-0.12,2.74-0.33,5.48-0.33,8.22c0,4.45,1.3,5.26,5.49,3.6c0.69-0.27,1.38-0.55,2.08-0.83c2.66,1.36,2.67,2.71-0.01,4.05
			c-2.52-0.06-5.05-0.12-7.57-0.18C408.76,133.43,409.04,136.22,410.6,139.03z"/>
		<path class="st11" d="M327.67,116.37c-0.22-0.14-0.36-0.33-0.4-0.59c1.99-2.35,6.52-2.32,8.4,0.06c-0.02,0.22-0.11,0.41-0.28,0.55
			c-0.43,0.78-1.23,1.55-1.24,2.33c-0.1,6.71-0.12,13.43,0.01,20.14c0.02,1.05,0.94,2.08,1.44,3.12c0,0,0,0,0,0
			c-0.83,2.61-3.48,3.13-7.63,1.51c0.26-0.7,0.74-1.39,0.74-2.09c0.06-7.76,0.08-15.53,0.01-23.29
			C328.73,117.53,328.05,116.95,327.67,116.37z"/>
		<path class="st12" d="M356.55,142.45c-0.06-0.18-0.01-0.33,0.15-0.45c0.25-0.54,0.72-1.08,0.73-1.62c0.05-7.34,0.06-14.67,0-22.01
			c-0.01-0.62-0.58-1.24-0.89-1.86c0,0,0,0.08,0,0.08c0-0.73,0-1.46,0-2.24c2.46,0,4.8,0,6.85,0c0,9.99,0,19.8,0,29.82
			C361.31,143.45,358.23,146.21,356.55,142.45z"/>
		<path class="st13" d="M286.51,146.21c-0.71-0.02-1.42-0.04-2.12-0.05c0.05-0.17,0.04-0.35-0.02-0.52
			c-0.78-0.21-1.56-0.41-2.34-0.62c-0.61,0.06-1.21,0.12-1.82,0.18c-0.18,0.05-0.31-0.01-0.4-0.17c-1.1-0.65-2.19-1.31-3.29-1.96
			c0,0-0.05-0.06-0.05-0.06c-0.24-0.24-0.48-0.47-0.71-0.71c0,0-0.06-0.06-0.06-0.06c-0.41-3.99-0.96-7.97-1.19-11.96
			c-0.2-3.47,0.17-6.99-0.14-10.45c-0.13-1.43-1.38-2.76-2.12-4.14c0,0,0.01,0,0.01,0c2.32-0.68,4.63-1.36,6.84-2.02
			c0,7.68-0.14,14.34,0.06,20.99c0.09,2.84,0.34,5.94,3.7,7.3c0,0-0.01-0.01-0.01-0.01c1.26,0.76,2.52,1.51,3.78,2.27
			c-0.02,0.48-0.05,0.96-0.07,1.45C286.47,145.85,286.46,146.03,286.51,146.21z"/>
		<path class="st14" d="M356.55,142.45c1.68,3.77,4.76,1.01,6.84,1.73c0-10.02,0-19.83,0-29.82c-2.05,0-4.39,0-6.85,0
			c0,0.78,0,1.51,0,2.24c-1.39-0.71-2.78-1.41-4.18-2.12c0.04-0.23,0.07-0.46,0.11-0.69c5.04,0,10.09,0,15.13,0
			c-5.52,2.41-3.47,7.24-3.63,11.24c-0.18,4.62,0.02,9.26-0.01,13.89c-0.02,2.8,1.27,4.04,4.08,4.18c4.11,0.21,7.85-0.11,9.75-4.54
			c0.17-0.41,0.64-0.72,1.03-0.99c0.16-0.12,0.48-0.02,0.71-0.02c1.49,5.43-0.54,8.2-5.93,8.19c-5.91-0.02-11.81,0-17.72-0.01
			c-1.18,0-2.37-0.11-3.55-0.16c-0.1-0.33-0.19-0.65-0.29-0.98C353.54,143.86,355.04,143.15,356.55,142.45z"/>
		<path class="st15" d="M286.52,145.67c0.02-0.48,0.05-0.96,0.07-1.45c1.25-0.25,2.49-0.49,3.74-0.74c0.34-0.07,0.67-0.15,1.01-0.22
			c0.4-0.22,0.8-0.44,1.2-0.66c1.21-2.27,3.23-4.46,3.46-6.82c0.53-5.58,0.52-11.27,0.02-16.84c-0.16-1.78-2.59-3.35-4.04-5.09
			c3.61,0,7.69,0,11.77,0c-5.02,2.22-4.16,6.64-4.28,10.61c-0.1,3.38-0.02,6.76-0.09,10.13c-0.09,4.08-1.65,7.42-5.19,9.69
			c-0.53,0.26-1.06,0.52-1.59,0.78l-0.16,0.14c0,0-0.21-0.04-0.21-0.04c-0.88,0.25-1.77,0.5-2.65,0.75l-0.18,0.11
			c0,0-0.18-0.11-0.18-0.11C288.32,145.83,287.42,145.75,286.52,145.67z"/>
		<path class="st16" d="M403.34,116.5c0.31,0.76,0.87,1.51,0.88,2.27c0.06,8.33,0.04,16.67,0.04,25.26c2.09,0,4.41,0,6.56,0
			c0-1.1,0-2.32,0-3.54c2.42,3.35,9.33,3.67,12.22,0.54c0.83-0.9,1.62-1.83,3.3-2.47c-0.34,2.21-0.68,4.43-1.04,6.74
			c-9.03,0-17.89,0-26.86,0c0.18-0.67,0.23-1.1,0.31-1.1c5.76-0.34,4.76-4.56,4.73-8.2C403.43,129.51,403.38,123,403.34,116.5z"/>
		<path class="st17" d="M327.98,143.49c4.14,1.63,6.79,1.1,7.63-1.51c6.35,2.8,11.41,1.13,15.14-5.41c1.37,6.74-0.46,9.14-5.93,9.13
			c-6.01-0.01-12.02,0.02-18.02,0c-1.06,0-2.12-0.15-3.18-0.22c-0.08-0.37-0.15-0.74-0.23-1.11c1.21-0.33,2.41-0.66,3.62-0.99
			C327.33,143.42,327.65,143.46,327.98,143.49z"/>
		<path class="st18" d="M411.11,115.83c-1.91-2.33-5.81-2.37-8.39-0.08c-1.04-0.37-2.09-0.73-3.13-1.1
			c0.08-0.32,0.16-0.63,0.23-0.95c8,0,15.99,0,24.39,0c0.17,2.39,0.34,4.81,0.58,8.18c-2.42-2.31-3.88-4.61-5.94-5.43
			C416.55,115.54,413.71,115.98,411.11,115.83z"/>
		<path class="st19" d="M282.84,141.96c-3.36-1.35-3.61-4.45-3.7-7.3c-0.2-6.65-0.06-13.31-0.06-20.99
			c-2.21,0.65-4.53,1.33-6.84,2.02c-1.05-0.35-2.1-0.69-3.14-1.04c0.08-0.32,0.16-0.65,0.24-0.97c4.92,0,9.84,0,14.76,0
			c-4.74,2.07-3.67,6.08-3.68,9.63c-0.01,3.75-0.23,7.54,0.17,11.25C280.86,137.08,282.06,139.5,282.84,141.96z"/>
		<path class="st19" d="M272.23,115.69c0.74,1.38,1.99,2.71,2.12,4.14c0.31,3.46-0.06,6.97,0.14,10.45c0.23,4,0.78,7.98,1.19,11.96
			c-0.88-2.9-2.25-5.75-2.54-8.7c-0.44-4.46-0.06-8.99-0.17-13.49C272.94,118.59,272.49,117.14,272.23,115.69z"/>
		<path class="st17" d="M335.61,141.99c-0.5-1.04-1.42-2.07-1.44-3.12c-0.13-6.71-0.11-13.43-0.01-20.14
			c0.01-0.78,0.81-1.56,1.24-2.33C335.47,124.93,335.54,133.46,335.61,141.99z"/>
		<path class="st20" d="M157.45,40.49c0.29,0.9,0.84,1.79,0.84,2.69c0.05,13.61,0.05,27.21,0,40.82c0,0.79-0.49,1.58-0.75,2.37
			C157.51,71.08,157.48,55.78,157.45,40.49z"/>
		<path class="st21" d="M418.33,130.86c2.68-1.34,2.67-2.69,0.01-4.05c0.42-1.2,0.84-2.39,1.26-3.59c0.34,0.06,0.69,0.12,1.03,0.17
			c0,3.65,0,7.3,0,10.96c-0.26,0.08-0.53,0.17-0.79,0.25C419.34,133.36,418.83,132.11,418.33,130.86z"/>
		<path class="st21" d="M327.98,143.49c-0.33-0.04-0.65-0.07-0.98-0.11c0.31-2.18,0.88-4.37,0.89-6.55
			c0.04-6.82-0.13-13.64-0.22-20.46c0.37,0.58,1.06,1.16,1.06,1.74c0.06,7.76,0.05,15.53-0.01,23.29
			C328.72,142.1,328.24,142.8,327.98,143.49z"/>
		<path class="st21" d="M335.68,115.84c-1.89-2.38-6.42-2.42-8.4-0.06c-1.23-0.36-2.45-0.71-3.68-1.07
			c0.06-0.32,0.12-0.64,0.19-0.95c5.03,0,10.06,0,15.09,0c0.09,0.28,0.18,0.56,0.27,0.84C337.99,115.01,336.83,115.43,335.68,115.84
			z"/>
		<path class="st18" d="M356.54,116.52c0.31,0.62,0.89,1.24,0.89,1.86c0.06,7.34,0.05,14.67,0,22.01c0,0.54-0.47,1.08-0.73,1.62
			C356.64,133.51,356.59,125.01,356.54,116.52z"/>
		<path class="st5" d="M454.13,126.29c-0.03,0.12-0.03,0.31-0.11,0.35c-4.56,2.47-3.58,5.8-1.46,9.31c0,0-0.23,0.21-0.23,0.21
			c-4.92-4.45-4.58-6.71,1.53-10.12L454.13,126.29z"/>
		<path class="st16" d="M410.6,139.03c-1.56-2.81-1.84-5.6,0.16-8.35C410.7,133.47,410.65,136.25,410.6,139.03z"/>
		<path class="st19" d="M290.34,143.49c-1.25,0.25-2.49,0.49-3.74,0.74c-1.26-0.76-2.52-1.52-3.77-2.27
			C285.33,142.46,287.84,142.98,290.34,143.49z"/>
		<path class="st19" d="M276.51,143.07c1.1,0.65,2.19,1.31,3.29,1.96C278.7,144.38,277.61,143.72,276.51,143.07z"/>
		<path class="st15" d="M282.02,145.02c0.78,0.21,1.56,0.41,2.34,0.62c-0.59,0.07-1.19,0.14-1.78,0.22l-0.28,0.05
			c0,0-0.26-0.12-0.26-0.12C282.03,145.53,282.03,145.28,282.02,145.02z"/>
		<path class="st19" d="M289.58,145.92c0.88-0.25,1.77-0.5,2.65-0.75C291.35,145.42,290.47,145.67,289.58,145.92z"/>
		<path class="st19" d="M286.52,145.67c0.9,0.08,1.8,0.16,2.7,0.24c-0.9,0.1-1.81,0.2-2.72,0.3
			C286.46,146.03,286.47,145.85,286.52,145.67z"/>
		<path class="st19" d="M292.61,145.06c0.53-0.26,1.06-0.52,1.59-0.78C293.67,144.54,293.14,144.8,292.61,145.06z"/>
		<path class="st19" d="M282.02,145.02c0.01,0.26,0.01,0.51,0.02,0.77c-0.61-0.2-1.22-0.39-1.84-0.59
			C280.81,145.14,281.42,145.08,282.02,145.02z"/>
		<path class="st19" d="M282.58,145.86c0.59-0.07,1.19-0.14,1.78-0.22c0.07,0.17,0.07,0.34,0.02,0.52
			C283.78,146.06,283.18,145.96,282.58,145.86z"/>
		<path class="st19" d="M275.75,142.3c0.24,0.24,0.48,0.47,0.71,0.71C276.22,142.77,275.99,142.54,275.75,142.3z"/>
		<path class="st19" d="M292.55,142.61c-0.4,0.22-0.8,0.44-1.2,0.66C291.75,143.04,292.15,142.83,292.55,142.61z"/>
		<path class="st22" d="M234.83,114.39c2.09,0,3.92,0,5.41,0c0,9.88,0,19.7,0,29.69c-2.14,0-3.85,0-5.41,0
			C234.83,134.34,234.83,124.61,234.83,114.39z"/>
		<path class="st13" d="M453.86,126.04c-6.11,3.41-6.46,5.67-1.53,10.12c0.39,1.16,0.92,2.29,1.12,3.48
			c0.19,1.16,0.04,2.38,0.04,4.15c-5.47-2.78-6.68-7.61-8.61-11.89c-0.16-0.36,0.63-1.1,0.91-1.7c0.51-1.07,0.97-2.16,1.45-3.24l0,0
			c4.92-3.39,1.5-7.04,0.14-10.57C452.15,115.25,454.42,118.76,453.86,126.04z"/>
	</g>
</g>
</svg>
